<?xml version="1.0" encoding="UTF-8" standalone="no"?>
<svg
   xmlns:dc="http://purl.org/dc/elements/1.1/"
   xmlns:cc="http://creativecommons.org/ns#"
   xmlns:rdf="http://www.w3.org/1999/02/22-rdf-syntax-ns#"
   xmlns:svg="http://www.w3.org/2000/svg"
   xmlns="http://www.w3.org/2000/svg"
   xmlns:xlink="http://www.w3.org/1999/xlink"
   xmlns:sodipodi="http://sodipodi.sourceforge.net/DTD/sodipodi-0.dtd"
   xmlns:inkscape="http://www.inkscape.org/namespaces/inkscape"
   version="1.0"
   width="367.000000pt"
   height="254.000000pt"
   viewBox="0 0 367.000000 254.000000"
   preserveAspectRatio="xMidYMid meet"
   id="svg6773"
   sodipodi:docname="cloud.svg"
   inkscape:version="0.92.4 (5da689c313, 2019-01-14)">
  <metadata
     id="metadata6779">
    <rdf:RDF>
      <cc:Work
         rdf:about="">
        <dc:format>image/svg+xml</dc:format>
        <dc:type
           rdf:resource="http://purl.org/dc/dcmitype/StillImage" />
        <dc:title></dc:title>
      </cc:Work>
    </rdf:RDF>
  </metadata>
  <defs
     id="defs6777">
    <linearGradient
       inkscape:collect="always"
       id="linearGradient7328">
      <stop
         style="stop-color:#1b25b9;stop-opacity:1"
         offset="0"
         id="stop7324" />
      <stop
         style="stop-color:#0e2661;stop-opacity:1"
         offset="1"
         id="stop7326" />
    </linearGradient>
    <linearGradient
       inkscape:collect="always"
       xlink:href="#linearGradient7328"
       id="linearGradient7330"
       x1="129.15254"
       y1="1334.5763"
       x2="4703.3052"
       y2="258.30508"
       gradientUnits="userSpaceOnUse" />
  </defs>
  <sodipodi:namedview
     pagecolor="#ffffff"
     bordercolor="#666666"
     borderopacity="1"
     objecttolerance="10"
     gridtolerance="10"
     guidetolerance="10"
     inkscape:pageopacity="0"
     inkscape:pageshadow="2"
     inkscape:window-width="1366"
     inkscape:window-height="705"
     id="namedview6775"
     showgrid="false"
     inkscape:pagecheckerboard="true"
     inkscape:zoom="0.98549528"
     inkscape:cx="197.03235"
     inkscape:cy="165.67065"
     inkscape:window-x="-8"
     inkscape:window-y="-8"
     inkscape:window-maximized="1"
     inkscape:current-layer="layer1" />
  <g
     transform="matrix(0.1,0,0,-0.1,0,254)"
     id="g6771"
     style="fill:url(#linearGradient7330);fill-opacity:1;stroke:none"
     sodipodi:insensitive="true">
    <path
       d="M 1165,2210 C 938,2164 751,1978 678,1725 659,1659 655,1621 655,1509 l 1,-137 -62,-22 C 432,1293 280,1170 219,1045 188,982 185,967 185,890 c 0,-77 3,-92 34,-155 60,-123 196,-235 361,-300 l 64,-25 h 1138 1138 l 65,31 c 130,61 231,154 277,255 33,72 32,180 -3,254 -65,136 -240,260 -439,310 l -45,11 -16,82 c -45,227 -171,422 -325,504 -169,90 -352,56 -502,-95 -38,-39 -64,-58 -66,-50 -3,7 -10,31 -17,53 -31,102 -118,236 -201,309 -130,114 -323,168 -483,136 z"
       id="path6769"
       inkscape:connector-curvature="0"
       style="opacity:0.98999999;fill:#98f8ff;fill-opacity:1;stroke:#ffffff;stroke-width:15.24750042;stroke-miterlimit:4;stroke-dasharray:none;stroke-opacity:1" />
  </g>
  <g
     inkscape:groupmode="layer"
     id="layer1"
     inkscape:label="Layer 1">
    <circle
       style="opacity:0.98999999;fill:#000000;fill-opacity:1;fill-rule:evenodd;stroke:none;stroke-width:1.52474999;stroke-miterlimit:4;stroke-dasharray:none;stroke-opacity:1;paint-order:markers fill stroke"
       id="path7332"
       cx="129.17494"
       cy="150.45508"
       r="9.6864414" />
    <circle
       style="opacity:0.98999999;fill:#000000;fill-opacity:1;fill-rule:evenodd;stroke:none;stroke-width:1.52474999;stroke-miterlimit:4;stroke-dasharray:none;stroke-opacity:1;paint-order:markers fill stroke"
       id="path7332-4"
       cx="203.97578"
       cy="150.45506"
       r="9.6864414" />
    <path
       style="fill:none;stroke:#000000;stroke-width:3.27675009;stroke-linecap:butt;stroke-linejoin:miter;stroke-miterlimit:4;stroke-dasharray:none;stroke-opacity:1"
       d="m 152.85869,167.12647 c 0,0 11.50319,23.52375 24.20296,0"
       id="path7353"
       inkscape:connector-curvature="0" />
  </g>
</svg>
